<svg width="110" height="110" viewBox="0 0 110 110" fill="none" xmlns="http://www.w3.org/2000/svg">
<rect x="2.5" y="2.5" width="105" height="105" rx="52.5" fill="#FD6486"/>
<path d="M44.203 65.5696L44.9101 66.2767L45.6172 65.5696L75.0172 36.1696C76.5767 34.6101 79.1435 34.6101 80.703 36.1696L80.7037 36.1703C81.0742 36.54 81.3681 36.9791 81.5686 37.4625C81.7691 37.9459 81.8723 38.4641 81.8723 38.9875C81.8723 39.5108 81.7691 40.029 81.5686 40.5125C81.3681 40.9959 81.0742 41.435 80.7037 41.8047L80.703 41.8054L47.753 74.7554C46.1935 76.3149 43.6767 76.3149 42.1172 74.7554L29.1672 61.8054C28.4199 61.058 28 60.0444 28 58.9875C28 57.9306 28.4199 56.9169 29.1672 56.1696C29.9146 55.4222 30.9282 55.0024 31.9851 55.0024C33.042 55.0024 34.0557 55.4222 34.803 56.1696L44.203 65.5696Z" fill="white" stroke="#FD6486" stroke-width="2"/>
<rect x="2.5" y="2.5" width="105" height="105" rx="52.5" stroke="black" stroke-width="5"/>
</svg>
