<svg width="110" height="110" viewBox="0 0 110 110" fill="none" xmlns="http://www.w3.org/2000/svg">
<rect x="2.5" y="2.5" width="105" height="105" rx="52.5" fill="#FD6486"/>
<rect x="54" y="40" width="6" height="15" rx="3" fill="black"/>
<rect x="72" y="40" width="6" height="15" rx="3" fill="black"/>
<path d="M86.8405 60.5894C81.3873 67.0398 73.5978 73.1696 64.5991 74.6108C55.6235 76.0484 45.3802 72.8308 34.9763 60.4553C34.2037 59.5363 33.0202 59.3391 32.0421 59.6595C31.0621 59.9805 30.25 60.8351 30.25 62.0455C30.25 62.6129 30.4567 63.1771 30.8182 63.6124C43.3395 78.6901 55.9217 81.9477 66.6375 79.7648C77.3266 77.5874 86.0998 70.0084 91.0593 63.5215C91.3641 63.1229 91.5155 62.6434 91.5155 62.1483C91.5155 60.9765 90.6963 60.1512 89.7281 59.8382C88.7615 59.5257 87.5894 59.7036 86.8405 60.5894Z" fill="black" stroke="black" stroke-width="0.5"/>
<rect x="2.5" y="2.5" width="105" height="105" rx="52.5" stroke="black" stroke-width="5"/>
</svg>
