<svg width="195" height="110" viewBox="0 0 195 110" fill="none" xmlns="http://www.w3.org/2000/svg">
<rect x="87.5" y="2.5" width="105" height="105" rx="52.5" fill="#FFCE67"/>
<rect x="139" y="40" width="6" height="15" rx="3" fill="black"/>
<rect x="157" y="40" width="6" height="15" rx="3" fill="black"/>
<path d="M171.841 60.5894C166.387 67.0398 158.598 73.1696 149.599 74.6108C140.624 76.0484 130.38 72.8308 119.976 60.4553C119.204 59.5363 118.02 59.3391 117.042 59.6595C116.062 59.9805 115.25 60.8351 115.25 62.0455C115.25 62.6129 115.457 63.1771 115.818 63.6124C128.34 78.6901 140.922 81.9477 151.637 79.7648C162.327 77.5874 171.1 70.0084 176.059 63.5215C176.364 63.1229 176.515 62.6434 176.515 62.1483C176.515 60.9765 175.696 60.1512 174.728 59.8382C173.761 59.5257 172.589 59.7036 171.841 60.5894Z" fill="black" stroke="black" stroke-width="0.5"/>
<rect x="87.5" y="2.5" width="105" height="105" rx="52.5" stroke="black" stroke-width="5"/>
<rect x="2.5" y="2.5" width="105" height="105" rx="52.5" fill="#FFCE67"/>
<rect x="54" y="40" width="6" height="15" rx="3" fill="black"/>
<rect x="72" y="40" width="6" height="15" rx="3" fill="black"/>
<path d="M86.8405 60.5894C81.3873 67.0398 73.5978 73.1696 64.5991 74.6108C55.6235 76.0484 45.3802 72.8308 34.9763 60.4553C34.2037 59.5363 33.0202 59.3391 32.0421 59.6595C31.0621 59.9805 30.25 60.8351 30.25 62.0455C30.25 62.6129 30.4567 63.1771 30.8182 63.6124C43.3395 78.6901 55.9217 81.9477 66.6375 79.7648C77.3266 77.5874 86.0998 70.0084 91.0593 63.5215C91.3641 63.1229 91.5155 62.6434 91.5155 62.1483C91.5155 60.9765 90.6963 60.1512 89.7281 59.8382C88.7615 59.5257 87.5894 59.7036 86.8405 60.5894Z" fill="black" stroke="black" stroke-width="0.5"/>
<rect x="2.5" y="2.5" width="105" height="105" rx="52.5" stroke="black" stroke-width="5"/>
</svg>
