<svg width="234" height="191" viewBox="0 0 234 191" fill="none" xmlns="http://www.w3.org/2000/svg">
<path d="M221.682 49.9844L122.205 13.4949C118.521 12.1437 114.476 12.1494 110.796 13.5111L12.2738 49.9689C5.79864 52.365 1.5 58.5392 1.5 65.4434V173C1.5 182.113 8.8873 189.5 18 189.5H216C225.113 189.5 232.5 182.113 232.5 173V65.4751C232.5 58.5537 228.18 52.3679 221.682 49.9844Z" fill="black" stroke="black" stroke-width="3" stroke-linejoin="round"/>
<path d="M221.682 39.9844L122.205 3.49491C118.521 2.14366 114.476 2.14941 110.796 3.51114L12.2738 39.9689C5.79864 42.365 1.5 48.5392 1.5 55.4434V163C1.5 172.113 8.8873 179.5 18 179.5H216C225.113 179.5 232.5 172.113 232.5 163V55.4751C232.5 48.5537 228.18 42.3679 221.682 39.9844Z" fill="#FD6486" stroke="black" stroke-width="3" stroke-linejoin="round"/>
</svg>
